<?xml version="1.0" standalone="no"?>
<!DOCTYPE svg PUBLIC "-//W3C//DTD SVG 20010904//EN"
 "http://www.w3.org/TR/2001/REC-SVG-20010904/DTD/svg10.dtd">
<svg version="1.0" xmlns="http://www.w3.org/2000/svg"
 width="90.000000pt" height="90.000000pt" viewBox="0 0 90.000000 90.000000"
 preserveAspectRatio="xMidYMid meet">
<metadata>
Created by potrace 1.11, written by Peter Selinger 2001-2013
</metadata>
<g transform="translate(0.000000,90.000000) scale(0.100000,-0.100000)"
fill="#000000" stroke="none">
<path d="M327 760 c-99 -31 -183 -105 -224 -200 -23 -53 -25 -165 -5 -226 20
-56 29 -69 90 -130 107 -106 287 -133 430 -64 55 27 133 106 160 162 43 89 36
241 -14 299 -8 8 -14 20 -14 26 0 6 -17 26 -37 45 -111 99 -248 131 -386 88z"/>
</g>
</svg>
